<svg xmlns="http://www.w3.org/2000/svg" width="480.886" height="566" version="1">
  <path fill="#FFF" d="M240.443 2.483c74.678 0 146.978 15.371 214.929 45.647 14.134 57.47 23.025 117.439 23.231 156.72.008.713.008 1.426.008 2.131 0 38.731-5.566 76.56-16.555 112.49-10.81 35.286-26.876 68.742-47.797 99.432-20.551 30.156-45.886 57.847-75.322 82.282-31.239 25.929-67.977 49.247-98.494 62.555-30.509-13.299-67.247-36.626-98.495-62.555-29.435-24.436-54.78-52.126-75.332-82.282-20.904-30.689-36.979-64.146-47.778-99.432C7.85 283.541 2.282 245.704 2.282 206.973v-2.123c.206-39.281 9.099-99.241 23.232-156.72C93.465 17.854 165.764 2.483 240.443 2.483"/>
  <path fill="#CE1042" d="M240.451 223.623c16.53 0 32.116 4.261 45.587 11.813h138.756c.283-9.708.11-20.611-.078-30.904-.808-42.494-13.164-114.217-25.268-163.979-49.222-15.929-102.035-25.259-158.972-25.259l-.025 208.329"/>
  <path fill="#DA2128" d="M240.485 15.465c-55.665 0-106.906 8.299-158.851 25.019C68.859 92.042 58.292 160.329 56.71 193.097c-2.311 48.001 1.161 82.703 10.766 120.669 5.404 21.359 12.578 41.421 21.711 61.749 9.872-5.19 20.113-11.693 30.457-19.409 10.869-8.102 20.302-18.463 28.026-28.292a95.115 95.115 0 0 1-.618-10.791c0-5.619.489-11.118 1.434-16.47-19.193.67-30.096.928-38.654.928-10.327 0-19.743-7.191-24.314-18.198h-4.836c-3.634 0-9.812-3.11-9.812-14.794 0-11.676 6.178-14.794 9.812-14.794h4.819c4.571-11.041 14.004-18.24 24.331-18.24h85.083c13.48-7.543 29.014-11.848 45.553-11.848l.017-208.142"/>
  <path fill="#003976" d="M155.97 482.902c-26.23-26.128-47.898-54.995-65.039-85.813-17.389-31.291-29.752-66.13-37.047-100.952-7.492-35.828-9.863-72.007-7.346-110.36 2.38-36.111 11.908-90.806 23.679-141.401a516.806 516.806 0 0 0-33.482 13.085c-12.38 49.71-21.075 112.782-21.255 147.26-.198 38.431 5.267 75.658 15.979 110.678 11.23 36.712 26.119 66.586 46.069 95.856 19.855 29.151 44.367 55.915 72.84 79.56 26.625 22.098 56.979 41.532 90.049 57.907 0 0 .008 0 0 0-31.455-19.297-59.936-41.42-84.447-65.82M324.881 482.91c26.23-26.126 47.89-54.995 65.03-85.813 17.397-31.291 29.753-66.121 37.048-100.952 7.499-35.827 9.862-72.006 7.345-110.359-2.372-36.111-11.925-90.857-23.696-141.453a519.39 519.39 0 0 1 33.543 13.119c12.389 49.711 21.032 112.8 21.221 147.278.198 38.43-5.275 75.666-15.979 110.676-10.413 34.032-25.913 66.285-46.07 95.858-19.854 29.15-44.365 55.914-72.848 79.559-26.625 22.098-56.979 41.532-90.049 57.916.009 0 0-.01 0 0 31.462-19.305 59.944-41.419 84.455-65.829"/>
  <path fill="#9A8449" d="M240.374 228.288c-49.024 0-88.77 39.754-88.77 88.761 0 49.031 39.746 88.769 88.77 88.769 49.023 0 88.769-39.737 88.769-88.769 0-49.007-39.746-88.761-88.769-88.761"/>
  <path fill="#DA2128" d="M240.443 410.458c-30.165 0-57.031-14.306-74.121-36.498-20.852 11.908-42.76 21.307-63.724 27.734 16.547 29.082 37.116 56.275 61.834 81.165 22.313 22.458 47.83 42.975 76.011 61.232V410.458"/>
  <path fill="#9A8449" d="M109.747 296.849c-9.605 0-17.819-7.568-21.075-18.188h-8.068c-2.079 0-5.18-2.526-5.18-10.156 0-7.62 3.102-10.146 5.18-10.146h8.06c3.256-10.653 11.478-18.248 21.083-18.248h77.634c-18.85 13.007-32.683 32.768-38.009 55.769-17.192.601-30.372.969-39.625.969"/>
  <path fill="#9A8449" d="M403.357 411.239c-19.862 29.144-44.367 55.915-72.856 79.55-26.625 22.089-57.014 41.55-90.075 57.925-33.069-16.375-63.423-35.836-90.041-57.925-28.481-23.635-52.993-50.406-72.848-79.55a366.28 366.28 0 0 1-4.622-6.984c28.997-4.89 61.06-17.201 90.667-34.074-7.38-10.646-12.63-22.88-15.069-36.103-7.415 9.115-16.256 18.36-26.343 25.887-16.367 12.217-36.127 24.349-57.504 30.921-13.979-23.824-25.13-49.127-33.198-75.503-10.713-35.012-16.178-72.238-15.972-110.669.171-34.479 8.866-97.549 21.238-147.261 64.464-27.828 132.956-41.97 203.708-41.97 70.752 0 139.244 14.142 203.708 41.97 12.381 49.711 21.066 112.782 21.246 147.261a383.149 383.149 0 0 1-1.442 35.406H293.317c21.101 14.563 35.912 37.589 39.537 64.189l32.546-7.759c7.26-1.624 10.267-6.538 11.022-11.023l81.871-5.532a361.12 361.12 0 0 1-8.877 35.389c-10.412 34.013-25.903 66.266-46.059 95.855m53.964-364.964C391.389 16.736 318.833 0 240.443 0S89.504 16.736 23.572 46.275C8.365 107.799.203 167.494.005 204.636c-.206 39.693 5.396 78.477 16.659 115.274 10.86 35.51 27.047 69.18 48.07 100.049 20.672 30.338 46.163 58.184 75.77 82.747 27.836 23.11 65.545 48.466 99.938 63.294 34.393-14.828 72.109-40.184 99.945-63.294 29.608-24.563 55.091-52.409 75.753-82.747 21.041-30.869 37.22-64.539 48.089-100.049 11.254-36.797 16.865-75.581 16.65-115.274-.188-37.142-8.359-96.837-23.558-158.361z"/>
  <path fill="#FFF" d="M246.268 341.595v47.829c22.32-1.787 41.799-13.678 53.853-31.084l-41.412-23.91a25.297 25.297 0 0 1-12.441 7.165M234.515 244.681c-22.338 1.788-41.816 13.678-53.878 31.11l41.334 23.842a25.21 25.21 0 0 1 12.544-7.243v-47.709M240.365 304.126c-7.122 0-12.904 5.774-12.904 12.896 0 7.14 5.782 12.904 12.904 12.904 7.123 0 12.897-5.765 12.897-12.904 0-7.121-5.774-12.896-12.897-12.896M246.268 244.681v47.709a25.197 25.197 0 0 1 12.526 7.253l41.343-23.852c-12.062-17.423-31.54-29.314-53.869-31.11M234.515 341.603a25.27 25.27 0 0 1-10.5-5.327 27.882 27.882 0 0 1-1.95-1.838l-41.412 23.902a76.372 76.372 0 0 0 2.981 4.004c12.157 15.207 30.311 25.432 50.88 27.08v-47.821M264.62 324.266l41.395 23.893c8.145-16.71 10.413-40.62.009-62.194l-41.369 23.876c1.331 4.313 1.468 9.493-.035 14.425"/>
  <path fill="#9A8449" d="M187.519 274.434l33.73 19.451c2.568-2.156 5.481-3.806 8.626-4.966l-.017-38.937c-16.685 2.501-31.773 11.212-42.339 24.452M250.985 250.017l-.062 39.033c3.138 1.15 5.955 2.671 8.524 4.818l33.808-19.425c-10.558-13.24-25.577-21.926-42.27-24.426M308.042 310.003a66.215 66.215 0 0 0-4.245-17.338l-33.852 19.451c.275 1.615.431 3.239.431 4.872 0 .661-.035 1.322-.077 1.968 9.562-2.612 19.64-5.096 29.847-7.252a837.518 837.518 0 0 0 7.896-1.701"/>
  <path fill="#CE1042" d="M240.443 544.091c28.189-18.258 53.766-38.835 76.07-61.301 26.144-26.316 47.692-55.374 64.688-86.338 17.259-31.454 29.46-66.413 36.564-101.355.56-2.698 1.073-5.276 1.556-7.973l-39.323 2.81c-2.081 5.516-6.789 9.604-13.388 11.082l.069-.017c-.266.077-14.684 3.651-33.258 7.939a97.13 97.13 0 0 1 .344 8.102c0 51.593-41.764 93.417-93.322 93.417v133.634"/>
  <path fill="#9A8449" d="M248.682 317.023c0-4.57-3.737-8.316-8.317-8.316-4.579 0-8.316 3.746-8.316 8.316 0 4.588 3.738 8.316 8.316 8.316 4.58 0 8.317-3.728 8.317-8.316"/>
  <path fill="#CE1042" d="M250.907 384.115a66.899 66.899 0 0 0 42.383-24.417l-33.963-19.546c-2.543 2.122-5.327 3.789-8.42 4.923 0 0 .061 39.04 0 39.04"/>
  <path fill="#DA2128" d="M187.536 359.707l33.808-19.58c2.551 2.122 5.43 3.745 8.531 4.88l-.078 39.092c-16.675-2.502-31.694-11.161-42.261-24.392"/>
  <path fill="#CE1042" d="M308.368 317.1c0-.919-.033-1.848-.068-2.758-2.56.55-5.009 1.092-7.32 1.573-10.326 2.173-20.311 4.707-29.229 7.139l31.995 18.472a66.5 66.5 0 0 0 4.622-24.426"/>
  <path fill="#FFF" d="M174.708 286.042c-9.58 20.25-8.961 43.069.129 62.204l41.273-23.954a25.304 25.304 0 0 1-.034-14.494l-41.368-23.756"/>
  <path fill="#9A8449" d="M177.097 341.613l33.662-19.556c-.576-3.298-.558-6.65 0-9.957l-33.765-19.383c-6.153 15.715-6.109 33.138.103 48.896M355.837 159.616c-4.477.163-5.447-2.87-5.507-5.069.017-2.303.781-5.74 7.902-7.665.173 2.44.361 4.881.361 4.881l.146 2.199c.104 1.582.198 3.007.361 4.563-.943.626-2.017 1.047-3.263 1.091m-87.548-7.346c-4.847 4.132-8.445 6.882-14.313 6.761-4.614-.094-7.466-3.204-9.219-6.684 5.068-1.899 23.969-9.004 29.382-11.032.062 3.961.138 9.279.138 9.279v.043c.129 3.136.164 6.203.104 9.236v.121l-6.092-7.724zm-26.747-15.921v-.188c0-7.801 2.913-10.851 5.662-11.109.825-.077 3.023-.274 4.029 3.385.388 1.417.55 2.475.55 3.299 0 2.113-1.135 2.525-2.474 3.006l-.087.026s-3.979 1.529-7.638 2.93c-.007-.446-.042-.893-.042-1.349zm-143.626 5.749c1.332-3.815 2.397-6.865 4.657-13.378 1.357 6.487 2.079 9.889 2.758 13.128-2.844.103-4.133.146-7.415.25zm176.275 22.939c-.087 1.813-.55 7.939-.713 9.76h26.908c-1.572-7.191-2.217-17.166-2.501-24.597l-.412-15.525c-.051-1.478.37-2.715 1.212-3.6.773-.808 1.84-1.289 2.93-1.297 1.255-.017 3.359-.043 3.531 4.339l.575 16.513c.274 7.423.387 17.853-.593 24.168h26.214c-.43-2.25-1.178-7.664-1.358-9.15 3.301 6.968 10.346 10.551 19.779 10.551 5.593 0 9.966-2.011 13.145-4.004l1.357 2.604h48.431c-2.155-7.286-3.479-17.39-4.338-24.898 0-.043-6.615-54.265-6.615-54.265l-24.968-4.021c2.02 6.779 3.523 17.166 4.364 24.632 0 .035 3.738 34.667 3.738 34.667.713 6.324 1.365 13.094 1.305 19.898l-.009.842-.996-2.448c-1.728-4.228-2.844-10.173-3.419-18.171-.009-.052-1.04-11.126-1.04-11.126-1.323-17.613-11.016-25.646-32.055-25.646-3.575 0-12.519.894-17.939 2.448l1.46 20.063 5.61-3.445c4.588-2.818 8.291-4.021 12.363-4.021 3.351 0 5.524 1.254 6.53 3.531-4.134.67-8.584 1.77-13.489 3.97-7.433 3.325-12.286 8.119-14.235 13.875-.01-.163-.01-.326-.019-.48-.009-.044-.867-18.395-.867-18.395-.447-11.891-7.845-19.297-19.306-19.297-5.301 0-10.001 1.521-14.081 4.45a15.744 15.744 0 0 0-.748-2.002l-1.021-2.13-21.54-.988c.971 3.875 2.311 14.684 2.594 18.928-1.142-5.851-4.201-12.08-9.991-16.118-4.398-3.05-9.914-4.674-15.954-4.674-8.008 0-16.076 3.351-21.591 8.978-5.456 5.56-8.455 13.172-8.764 22.115-2.028-2.225-4.726-4.124-8.093-5.696l-9.897-4.717-.49-.232c-2.38-1.108-2.465-1.495-2.414-2.139.077-1.005 2.371-2.097 5.619-2.097 4.072 0 9.958 2.045 14.726 5.095l.404-17.715c-3.531-1.59-8.446-2.896-15.49-2.896-3.678 0-10.74.524-16.823 3.96a26.753 26.753 0 0 0-4.553 3.249l.275-5.207c-5.731-.645-11.874-.825-19.374 6.125-.06-.481-.559-2.896-1.057-4.287l-23.266 1.417c1.727 6.237 1.941 15.68 1.469 24.1 0 .025-.438 8.892-.438 8.892 0-.025-.069 1.006-.069 1.006-.25 4.647-.516 9.381-.988 13.823-1.942-6.014-4.081-14.219-5.688-21.032L120.04 91.002l-32.812 4.683c.284.662.748 2.336.962 3.969.292 2.165.198 6.649-2.921 15.74-5.267 15.336-12.845 37.992-20.087 53.62-1.014 2.191-2.733 5.782-2.733 5.782h25.552c.327-4.003 2.019-10.61 3.66-15.413 3.522-.095 12.802-.335 17.08-.447.791 3.711 1.848 8.97 2.071 12.046l.275 3.814h51.43c-1.22-8.068-.748-19.228-.396-25.56.404-7.183 1.907-11.779 4.88-14.872 2.303-2.406 5.06-2.973 6.985-3.024-.266 9.614 6.057 14.099 11.693 16.926l10.044 5.112c3.617 1.89 3.548 2.869 3.497 3.504-.146 1.934-3.058 2.681-5.73 2.612-5.232-.111-12.475-3.729-20.646-12.166l-.43 22.905c6.47 3.643 14.314 4.95 21.454 4.95 11.649 0 24.16-5.078 27.527-15.938 5.739 10.979 17.218 16.049 28.534 16.049 10.103.001 17.654-3.255 24.262-10.257z"/>
  <path fill="#FFF" d="M213.508 116.348c-2.26-.842-5.911-1.649-11.419-1.649-4.545 0-10.31.867-14.872 3.445-5.198 2.946-8.857 7.663-9.192 12.646-.5 7.423 3.616 10.955 9.434 13.876a814.005 814.005 0 0 1 10.103 5.146c3.197 1.675 5.954 3.72 5.679 7.415-.292 3.763-3.746 6.298-9.708 6.298-4.915 0-12.011-2.887-16.84-7.286l-.206 11.547c4.209 2.113 11.1 3.368 17.337 3.368 10.825 0 24.194-4.949 24.435-17.596.163-8.995-6.435-12.715-10.345-14.537-3.9-1.821-8.016-3.815-9.958-4.742-1.778-.876-5.516-2.269-5.189-6.358.318-3.909 4.769-5.757 9.588-5.757 4.055 0 7.982 1.117 10.988 2.741l.165-8.557M92.168 146.316l11.341-32.631 6.727 32.03-18.068.601m24.77-50.794l-24.77 3.548c.602 3.548-.344 9.717-3.05 17.596-5.216 15.207-13.609 39.667-20.269 54.11h15.629c.764-4.613 2.087-9.313 4.287-15.345l23.172-.61c1.022 4.563 2.594 11.839 2.896 15.955h20.68c-2.544-5.945-5.86-18.558-7.905-27.227l-10.67-48.027zM176.709 116.434l-.533 10.989c-3.642-.473-8.428.327-12.088 4.132-3.385 3.532-5.499 8.661-5.988 17.433-.396 7.216-.662 15.129-.052 21.788h-17.733c1.168-6.563 1.564-14.399 1.976-21.633l.438-8.849c.404-7.209.429-14.039-.679-20.621l15.456-.954c.722 2.586 1.074 6.083.902 9.923 6.772-10.146 13.379-12.449 18.301-12.208M398.1 99.139l-15.974-2.578c1.573 6.676 2.209 11.977 3.017 19.176l3.736 34.685c.808 7.217 1.385 13.79 1.324 20.354h17.295c-1.537-6.563-2.32-13.136-3.145-20.354L398.1 99.139M326.617 170.776c-1.03-6.563-1.435-13.136-1.692-20.354l-.868-18.352c-.37-9.752-5.971-15.534-15.362-15.534-5.146 0-11.246 1.658-16.479 8.265-.146-1.391-.945-6.022-1.915-8.058l-14.064-.653c1.211 6.813 1.589 13.635 1.864 20.826l.197 13.506c.275 7.217.111 13.79-.446 20.354h17.716c-1.041-6.563-1.426-13.136-1.7-20.354l-.423-15.576c-.205-5.525 3.928-9.039 8.188-9.099 4.933-.06 7.347 3.205 7.535 8.153l.575 16.522c.275 7.217.378 13.79-.172 20.354h17.046M355.81 163.593c-5 .215-9.33-2.431-9.502-8.849-.154-5.748 3.789-10.835 15.612-12.776l.679 9.424c.241 3.257.326 5.542.738 8.669-1.7 2.046-4.493 3.387-7.527 3.532m25.63 7.183c-2.122-5.215-3.179-12.149-3.703-19.383l-1.031-11.075c-.979-13.076-6.478-22.037-28.111-22.037-3.738 0-9.21.61-13.601 1.581l.73 10.052c4.39-2.706 8.936-4.64 14.511-4.64 5.765 0 10.757 2.363 11.229 10.972-5.584.627-10.809 1.589-16.667 4.227-6.59 2.947-13.386 8.266-12.743 17.321.714 10.009 8.275 14.373 17.794 14.373 7.165 0 12.174-3.72 14.882-6.513.497 1.848 1.201 3.703 2.009 5.121h14.701zM250.667 138.522l-12.647 4.854a53.361 53.361 0 0 1-.507-7.01c-.077-13.128 6.994-15.104 9.322-15.319 3.901-.361 7.037 1.787 8.273 6.323 1.41 5.122 1.058 9.185-4.441 11.152m11.023-20.567c-3.927-2.724-8.652-3.961-13.66-3.961-11.454 0-26.755 8.128-26.351 29.41.404 21.35 16.736 27.863 28.25 27.863 10.104 0 16.229-3.574 21.221-8.867l-3.539-4.493c-2.707 2.122-6.857 5.292-13.722 5.155-7.251-.146-12.028-5.55-14.382-13.033l31.797-11.951c-.98-10.518-4.579-16.609-9.614-20.123z"/>
</svg>
